<svg xmlns="http://www.w3.org/2000/svg" width="128" height="128" viewBox="0 0 24 24"><path fill="#2196f3" d="M12 24C5.383 24 0 18.617 0 12S5.383 0 12 0s12 5.383 12 12-5.383 12-12 12z"/><path fill="#eceff1" d="m17.959 13.524-2.269-.563a1.374 1.374 0 0 0-1.431.505l-.809 1.071a10.484 10.484 0 0 1-4.021-4.043l1.045-.778a1.36 1.36 0 0 0 .509-1.427l-.567-2.253A1.373 1.373 0 0 0 9.08 5l-2.717.02a1.347 1.347 0 0 0-.994.438c-.26.282-.394.666-.365 1.052.479 6.603 5.849 11.971 12.491 12.485a1.414 1.414 0 0 0 1.069-.368c.28-.26.435-.613.435-.995v-2.781a1.364 1.364 0 0 0-1.04-1.327z"/></svg>